<?xml version="1.0" encoding="UTF-8" standalone="no"?>
<svg
   xmlns:dc="http://purl.org/dc/elements/1.1/"
   xmlns:cc="http://creativecommons.org/ns#"
   xmlns:rdf="http://www.w3.org/1999/02/22-rdf-syntax-ns#"
   xmlns:svg="http://www.w3.org/2000/svg"
   xmlns="http://www.w3.org/2000/svg"
   xmlns:sodipodi="http://sodipodi.sourceforge.net/DTD/sodipodi-0.dtd"
   xmlns:inkscape="http://www.inkscape.org/namespaces/inkscape"
   inkscape:version="1.0 (4035a4fb49, 2020-05-01)"
   height="302.02054"
   width="341"
   sodipodi:docname="app.svg"
   xml:space="preserve"
   viewBox="0 0 341 302.02054"
   y="0px"
   x="0px"
   id="Capa_1"
   version="1.1"><metadata
   id="metadata61"><rdf:RDF><cc:Work
       rdf:about=""><dc:format>image/svg+xml</dc:format><dc:type
         rdf:resource="http://purl.org/dc/dcmitype/StillImage" /><dc:title></dc:title></cc:Work></rdf:RDF></metadata><defs
   id="defs59" /><sodipodi:namedview
   inkscape:current-layer="Capa_1"
   inkscape:window-maximized="1"
   inkscape:window-y="-8"
   inkscape:window-x="-8"
   inkscape:cy="139.01681"
   inkscape:cx="134.96377"
   inkscape:zoom="0.74301455"
   fit-margin-bottom="0"
   fit-margin-right="0"
   fit-margin-left="0"
   fit-margin-top="0"
   showgrid="false"
   id="namedview57"
   inkscape:window-height="705"
   inkscape:window-width="1366"
   inkscape:pageshadow="2"
   inkscape:pageopacity="0"
   guidetolerance="10"
   gridtolerance="10"
   objecttolerance="10"
   borderopacity="1"
   bordercolor="#666666"
   pagecolor="#ffffff" />

<g
   transform="translate(-85.5,-105.00646)"
   style="fill:#ffffff;fill-opacity:1"
   id="g12">
	<g
   style="fill:#ffffff;fill-opacity:1"
   id="g10">
		<path
   style="fill:#ffffff;fill-opacity:1"
   id="path8"
   d="m 305.646,123.531 c -1.729,-6.45 -5.865,-11.842 -11.648,-15.18 -11.936,-6.892 -27.256,-2.789 -34.15,9.151 l -3.848,6.664 -3.848,-6.665 c -6.893,-11.937 -22.212,-16.042 -34.15,-9.151 h -0.001 c -11.938,6.893 -16.042,22.212 -9.15,34.151 L 227.132,174.165 159.678,291 H 110.5 c -13.785,0 -25,11.215 -25,25 0,13.785 11.215,25 25,25 h 189.86 l -28.868,-50 h -54.079 l 85.735,-148.498 c 3.339,-5.783 4.227,-12.521 2.498,-18.971 z" />
	</g>
</g>
<g
   transform="translate(-85.5,-105.00646)"
   style="fill:#ffffff;fill-opacity:1"
   id="g18">
	<g
   style="fill:#ffffff;fill-opacity:1"
   id="g16">
		<path
   style="fill:#ffffff;fill-opacity:1"
   id="path14"
   d="m 401.5,291 h -49.178 l -55.907,-96.834 -28.867,50 86.804,150.348 c 3.339,5.784 8.729,9.921 15.181,11.65 2.154,0.577 4.339,0.863 6.511,0.863 4.332,0 8.608,-1.136 12.461,-3.361 11.938,-6.893 16.042,-22.213 9.149,-34.15 L 381.189,341 H 401.5 c 13.785,0 25,-11.215 25,-25 0,-13.785 -11.215,-25 -25,-25 z" />
	</g>
</g>
<g
   transform="translate(-85.5,-105.00646)"
   style="fill:#ffffff;fill-opacity:1"
   id="g24">
	<g
   style="fill:#ffffff;fill-opacity:1"
   id="g22">
		<path
   style="fill:#ffffff;fill-opacity:1"
   id="path20"
   d="m 119.264,361 -4.917,8.516 c -6.892,11.938 -2.787,27.258 9.151,34.15 3.927,2.267 8.219,3.345 12.458,3.344 8.646,0 17.067,-4.484 21.693,-12.495 L 176.999,361 Z" />
	</g>
</g>
<g
   transform="translate(-85.5,-105.00646)"
   style="fill:#ffffff;fill-opacity:1"
   id="g26">
</g>
<g
   transform="translate(-85.5,-105.00646)"
   style="fill:#ffffff;fill-opacity:1"
   id="g28">
</g>
<g
   transform="translate(-85.5,-105.00646)"
   style="fill:#ffffff;fill-opacity:1"
   id="g30">
</g>
<g
   transform="translate(-85.5,-105.00646)"
   style="fill:#ffffff;fill-opacity:1"
   id="g32">
</g>
<g
   transform="translate(-85.5,-105.00646)"
   style="fill:#ffffff;fill-opacity:1"
   id="g34">
</g>
<g
   transform="translate(-85.5,-105.00646)"
   style="fill:#ffffff;fill-opacity:1"
   id="g36">
</g>
<g
   transform="translate(-85.5,-105.00646)"
   style="fill:#ffffff;fill-opacity:1"
   id="g38">
</g>
<g
   transform="translate(-85.5,-105.00646)"
   style="fill:#ffffff;fill-opacity:1"
   id="g40">
</g>
<g
   transform="translate(-85.5,-105.00646)"
   style="fill:#ffffff;fill-opacity:1"
   id="g42">
</g>
<g
   transform="translate(-85.5,-105.00646)"
   style="fill:#ffffff;fill-opacity:1"
   id="g44">
</g>
<g
   transform="translate(-85.5,-105.00646)"
   style="fill:#ffffff;fill-opacity:1"
   id="g46">
</g>
<g
   transform="translate(-85.5,-105.00646)"
   style="fill:#ffffff;fill-opacity:1"
   id="g48">
</g>
<g
   transform="translate(-85.5,-105.00646)"
   style="fill:#ffffff;fill-opacity:1"
   id="g50">
</g>
<g
   transform="translate(-85.5,-105.00646)"
   style="fill:#ffffff;fill-opacity:1"
   id="g52">
</g>
<g
   transform="translate(-85.5,-105.00646)"
   style="fill:#ffffff;fill-opacity:1"
   id="g54">
</g>
</svg>
