<?xml version="1.0" encoding="UTF-8" standalone="no"?>
<svg
   xmlns:dc="http://purl.org/dc/elements/1.1/"
   xmlns:cc="http://creativecommons.org/ns#"
   xmlns:rdf="http://www.w3.org/1999/02/22-rdf-syntax-ns#"
   xmlns:svg="http://www.w3.org/2000/svg"
   xmlns="http://www.w3.org/2000/svg"
   xmlns:sodipodi="http://sodipodi.sourceforge.net/DTD/sodipodi-0.dtd"
   xmlns:inkscape="http://www.inkscape.org/namespaces/inkscape"
   inkscape:version="1.0 (4035a4fb49, 2020-05-01)"
   sodipodi:docname="marketing2.svg"
   xml:space="preserve"
   style="enable-background:new 0 0 375.148 375.148;"
   viewBox="0 0 375.148 375.148"
   y="0px"
   x="0px"
   id="Capa_1"
   version="1.1"><metadata
   id="metadata1696"><rdf:RDF><cc:Work
       rdf:about=""><dc:format>image/svg+xml</dc:format><dc:type
         rdf:resource="http://purl.org/dc/dcmitype/StillImage" /><dc:title></dc:title></cc:Work></rdf:RDF></metadata><defs
   id="defs1694" /><sodipodi:namedview
   inkscape:current-layer="Capa_1"
   inkscape:window-maximized="1"
   inkscape:window-y="-8"
   inkscape:window-x="-8"
   inkscape:cy="197.68311"
   inkscape:cx="171.9771"
   inkscape:zoom="1.0140623"
   showgrid="false"
   id="namedview1692"
   inkscape:window-height="705"
   inkscape:window-width="1366"
   inkscape:pageshadow="2"
   inkscape:pageopacity="0"
   guidetolerance="10"
   gridtolerance="10"
   objecttolerance="10"
   borderopacity="1"
   bordercolor="#666666"
   pagecolor="#ffffff" />
<g
   style="fill:#1858c8;fill-opacity:1"
   id="g1659">
	<g
   style="fill:#1858c8;fill-opacity:1"
   id="g1657">
		<g
   style="fill:#1858c8;fill-opacity:1"
   id="g1655">
			<path
   style="fill:#1858c8;fill-opacity:1"
   id="path1647"
   d="M222.076,218.936h-68.963c-5.771,0-10.449,4.678-10.449,10.449v135.314c0,5.771,4.678,10.449,10.449,10.449h68.963     c5.771,0,10.449-4.678,10.449-10.449V229.385C232.525,223.614,227.847,218.936,222.076,218.936z M211.627,354.25h-48.065V239.834     h48.065V354.25z" />
			<path
   style="fill:#1858c8;fill-opacity:1"
   id="path1649"
   d="M358.958,136.911h-69.486c-5.771,0-10.449,4.678-10.449,10.449v217.339c0,5.771,4.678,10.449,10.449,10.449h69.486     c5.771,0,10.449-4.678,10.449-10.449V147.36C369.407,141.59,364.729,136.911,358.958,136.911z M348.509,354.25h-48.588V157.809     h48.588V354.25z" />
			<path
   style="fill:#1858c8;fill-opacity:1"
   id="path1651"
   d="M85.717,269.613H16.231c-5.771,0-10.449,4.678-10.449,10.449v84.637c0,5.771,4.678,10.449,10.449,10.449h69.486     c5.771,0,10.449-4.678,10.449-10.449v-84.637C96.166,274.292,91.488,269.613,85.717,269.613z M75.268,354.25H26.68v-63.739     h48.588V354.25z" />
			<path
   style="fill:#1858c8;fill-opacity:1"
   id="path1653"
   d="M370.452,10.479c-1.589-2.19-4.089-3.536-6.792-3.657L268.574,0.03c-5.771-0.433-10.8,3.895-11.233,9.665     c-0.433,5.771,3.894,10.8,9.665,11.233l67.297,4.57l-123.721,96.786l-94.563-74.188c-4.038-3.198-9.803-2.976-13.584,0.522     L5.26,141.613c-4.131,3.919-4.363,10.425-0.522,14.629c1.864,2.419,4.786,3.783,7.837,3.657c2.756-0.039,5.385-1.166,7.314-3.135     l90.384-86.727l93.518,73.665c3.817,3.056,9.244,3.056,13.061,0L350.601,39.624l-5.227,64.896     c-0.026,5.674,4.279,10.431,9.927,10.971h0.522c5.386,0.027,9.91-4.045,10.449-9.404l6.792-88.294     C373.447,15.074,372.471,12.34,370.452,10.479z" />
		</g>
	</g>
</g>
<g
   style="fill:#1858c8;fill-opacity:1"
   id="g1661">
</g>
<g
   style="fill:#1858c8;fill-opacity:1"
   id="g1663">
</g>
<g
   style="fill:#1858c8;fill-opacity:1"
   id="g1665">
</g>
<g
   style="fill:#1858c8;fill-opacity:1"
   id="g1667">
</g>
<g
   style="fill:#1858c8;fill-opacity:1"
   id="g1669">
</g>
<g
   style="fill:#1858c8;fill-opacity:1"
   id="g1671">
</g>
<g
   style="fill:#1858c8;fill-opacity:1"
   id="g1673">
</g>
<g
   style="fill:#1858c8;fill-opacity:1"
   id="g1675">
</g>
<g
   style="fill:#1858c8;fill-opacity:1"
   id="g1677">
</g>
<g
   style="fill:#1858c8;fill-opacity:1"
   id="g1679">
</g>
<g
   style="fill:#1858c8;fill-opacity:1"
   id="g1681">
</g>
<g
   style="fill:#1858c8;fill-opacity:1"
   id="g1683">
</g>
<g
   style="fill:#1858c8;fill-opacity:1"
   id="g1685">
</g>
<g
   style="fill:#1858c8;fill-opacity:1"
   id="g1687">
</g>
<g
   style="fill:#1858c8;fill-opacity:1"
   id="g1689">
</g>
</svg>
