<?xml version="1.0" encoding="UTF-8" standalone="no"?>
<svg
   xmlns:dc="http://purl.org/dc/elements/1.1/"
   xmlns:cc="http://creativecommons.org/ns#"
   xmlns:rdf="http://www.w3.org/1999/02/22-rdf-syntax-ns#"
   xmlns:svg="http://www.w3.org/2000/svg"
   xmlns="http://www.w3.org/2000/svg"
   xmlns:sodipodi="http://sodipodi.sourceforge.net/DTD/sodipodi-0.dtd"
   xmlns:inkscape="http://www.inkscape.org/namespaces/inkscape"
   inkscape:version="1.0 (4035a4fb49, 2020-05-01)"
   sodipodi:docname="mini_smartphone2.svg"
   version="1.1"
   width="512"
   viewBox="0 0 512 512"
   height="512"
   enable-background="new 0 0 512 512"
   id="Capa_1">
  <metadata
     id="metadata2279">
    <rdf:RDF>
      <cc:Work
         rdf:about="">
        <dc:format>image/svg+xml</dc:format>
        <dc:type
           rdf:resource="http://purl.org/dc/dcmitype/StillImage" />
        <dc:title></dc:title>
      </cc:Work>
    </rdf:RDF>
  </metadata>
  <defs
     id="defs2277" />
  <sodipodi:namedview
     inkscape:current-layer="Capa_1"
     inkscape:window-maximized="1"
     inkscape:window-y="-8"
     inkscape:window-x="-8"
     inkscape:cy="296.60217"
     inkscape:cx="215.79203"
     inkscape:zoom="0.74301455"
     showgrid="false"
     id="namedview2275"
     inkscape:window-height="705"
     inkscape:window-width="1366"
     inkscape:pageshadow="2"
     inkscape:pageopacity="0"
     guidetolerance="10"
     gridtolerance="10"
     objecttolerance="10"
     borderopacity="1"
     bordercolor="#666666"
     pagecolor="#ffffff" />
  <g
     style="fill:#1858c8;fill-opacity:1"
     id="g2272">
    <path
       style="fill:#1858c8;fill-opacity:1"
       id="path2270"
       d="m416.303 242.244-72.456-72.457v-124.787c0-24.813-20.187-45-45-45h-196c-24.813 0-45 20.187-45 45v422c0 24.813 20.187 45 45 45h306c7.146 0 13.299-5.04 14.706-12.046l27.953-139.147c8.732-43.466-4.428-87.788-35.203-118.563zm-313.456-212.244h196c8.271 0 15 6.729 15 15v193.479c-18.398-18.146-47.955-18.046-66.228.226-18.311 18.281-18.399 47.958-.122 66.359l57.456 59.733c-12.456 9.296-28.592 25.521-40.18 52.203h-176.926v-372c0-8.271 6.728-15 15-15zm-15 437v-20h167.229c-2.378 10.518-4.06 22.148-4.801 35h-147.428c-8.272 0-15-6.729-15-15zm334.247-112.102-25.533 127.102c-24.121 0-91.451 0-116.216 0 2.163-31.861 11.334-58.562 26.846-77.835 12.86-15.979 25.954-21.708 26.997-22.146 9.815-3.513 13.323-16.253 5.47-24.417-70.924-73.736-70.706-73.512-70.834-73.638-6.588-6.588-6.692-17.355 0-24.037 6.613-6.612 17.362-6.63 23.997-.049 31.711 32.436 16.291 16.871 71.785 72.364 5.857 5.858 15.355 5.859 21.213 0 5.858-5.858 5.858-15.355 0-21.213l-41.972-41.971v-56.844l51.243 51.243c23.658 23.658 33.754 57.842 27.004 91.441z" />
  </g>
</svg>
